<svg width="256" height="256" viewBox="0 0 256 256" fill="none" xmlns="http://www.w3.org/2000/svg" role="img" aria-labelledby="title desc">
  <title id="title">Library API logo</title>
  <desc id="desc">Book-shaped logo for the Library API project.</desc>
  <defs>
    <linearGradient id="bg" x1="36" y1="28" x2="216" y2="228" gradientUnits="userSpaceOnUse">
      <stop stop-color="#E7F4F2"/>
      <stop offset="1" stop-color="#F7EEE4"/>
    </linearGradient>
    <linearGradient id="cover" x1="68" y1="58" x2="188" y2="202" gradientUnits="userSpaceOnUse">
      <stop stop-color="#146C67"/>
      <stop offset="1" stop-color="#0F4F4B"/>
    </linearGradient>
    <linearGradient id="accent" x1="148" y1="72" x2="190" y2="160" gradientUnits="userSpaceOnUse">
      <stop stop-color="#D9A066"/>
      <stop offset="1" stop-color="#9E652E"/>
    </linearGradient>
    <filter id="shadow" x="34" y="26" width="188" height="204" filterUnits="userSpaceOnUse" color-interpolation-filters="sRGB">
      <feFlood flood-opacity="0" result="BackgroundImageFix"/>
      <feColorMatrix in="SourceAlpha" type="matrix" values="0 0 0 0 0 0 0 0 0 0 0 0 0 0 0 0 0 0 127 0" result="hardAlpha"/>
      <feOffset dy="10"/>
      <feGaussianBlur stdDeviation="10"/>
      <feColorMatrix type="matrix" values="0 0 0 0 0.0588235 0 0 0 0 0.121569 0 0 0 0 0.180392 0 0 0 0.14 0"/>
      <feBlend mode="normal" in2="BackgroundImageFix" result="effect1_dropShadow_1_1"/>
      <feBlend mode="normal" in="SourceGraphic" in2="effect1_dropShadow_1_1" result="shape"/>
    </filter>
  </defs>
  <rect x="24" y="24" width="208" height="208" rx="52" fill="url(#bg)"/>
  <circle cx="190" cy="62" r="22" fill="#D9A066" fill-opacity="0.2"/>
  <circle cx="62" cy="194" r="28" fill="#146C67" fill-opacity="0.12"/>
  <g filter="url(#shadow)">
    <path d="M72 64C72 56.268 78.268 50 86 50H168C175.732 50 182 56.268 182 64V192C182 199.732 175.732 206 168 206H86C78.268 206 72 199.732 72 192V64Z" fill="url(#cover)"/>
    <path d="M88 72C88 66.477 92.477 62 98 62H162C167.523 62 172 66.477 172 72V184C172 189.523 167.523 194 162 194H98C92.477 194 88 189.523 88 184V72Z" fill="#FCFEFD"/>
    <path d="M88 72C88 66.477 92.477 62 98 62H124V194H98C92.477 194 88 189.523 88 184V72Z" fill="#F3FAF8"/>
    <rect x="104" y="84" width="52" height="8" rx="4" fill="#DCEEEA"/>
    <rect x="104" y="100" width="42" height="8" rx="4" fill="#DCEEEA"/>
    <rect x="104" y="128" width="54" height="8" rx="4" fill="#E9EEF6"/>
    <rect x="104" y="144" width="44" height="8" rx="4" fill="#E9EEF6"/>
    <rect x="104" y="160" width="58" height="8" rx="4" fill="#F3E5D5"/>
    <path d="M148 62H172V118L160 110L148 118V62Z" fill="url(#accent)"/>
    <path d="M124 62V194" stroke="#D8ECE8" stroke-width="2"/>
    <path d="M72 78C72 70.268 78.268 64 86 64V192C78.268 192 72 198.268 72 206V78Z" fill="#0D3E3A" fill-opacity="0.18"/>
  </g>
</svg>
